<svg width="152" height="16" viewBox="0 0 152 16" fill="none" xmlns="http://www.w3.org/2000/svg">
<path d="M13.0625 1.125C13.8594 1.14062 14.5703 1.39062 15.1953 1.875C15.8203 2.35938 16.3203 2.9375 16.6953 3.60938C17.0859 4.28125 17.375 4.99219 17.5625 5.74219C17.75 6.49219 17.8438 7.25781 17.8438 8.03906C17.8438 9.07031 17.6797 10.0859 17.3516 11.0859C17.0391 12.0703 16.5156 12.9453 15.7812 13.7109C15.0625 14.4766 14.1562 14.8906 13.0625 14.9531H4.88281C3.78906 14.9062 2.875 14.5 2.14062 13.7344C1.40625 12.9688 0.882812 12.0859 0.570312 11.0859C0.273438 10.0859 0.125 9.07031 0.125 8.03906C0.125 7.00781 0.28125 6 0.59375 5.01562C0.90625 4.01562 1.42188 3.13281 2.14062 2.36719C2.875 1.58594 3.78906 1.17188 4.88281 1.125H5.32812H12.6172H13.0625ZM12.2656 11.8125C12.8594 11.7812 13.3516 11.5625 13.7422 11.1562C14.1484 10.7344 14.4375 10.25 14.6094 9.70312C14.7812 9.15625 14.8672 8.60156 14.8672 8.03906C14.8672 7.47656 14.7734 6.92969 14.5859 6.39844C14.4141 5.85156 14.1328 5.36719 13.7422 4.94531C13.3516 4.52344 12.8594 4.29688 12.2656 4.26562H5.60938C5.01562 4.29688 4.52344 4.52344 4.13281 4.94531C3.74219 5.36719 3.45312 5.85156 3.26562 6.39844C3.09375 6.92969 3.00781 7.47656 3.00781 8.03906C3.00781 8.60156 3.09375 9.15625 3.26562 9.70312C3.4375 10.25 3.71875 10.7344 4.10938 11.1562C4.51562 11.5625 5.01562 11.7812 5.60938 11.8125H12.2656ZM20.8906 7.26562C21.1875 6.51562 21.6875 5.84375 22.3906 5.25C23.1094 4.64062 24.0156 4.32812 25.1094 4.3125H33.9219C34.3594 4.3125 34.7266 4.46875 35.0234 4.78125C35.3359 5.07812 35.4922 5.44531 35.4922 5.88281C35.4922 6.32031 35.3359 6.69531 35.0234 7.00781C34.7266 7.30469 34.3594 7.45312 33.9219 7.45312H25.0156C24.7188 7.45312 24.4609 7.57812 24.2422 7.82812C24.0234 8.0625 23.8516 8.34375 23.7266 8.67188C23.6172 9 23.5625 9.3125 23.5625 9.60938V13.7109C23.4688 14.6484 22.9531 15.1562 22.0156 15.2344C21.5781 15.2344 21.1953 15.0938 20.8672 14.8125C20.5547 14.5156 20.3984 14.1484 20.3984 13.7109V9.63281H20.4219C20.4219 8.82031 20.5781 8.03125 20.8906 7.26562ZM50.8672 2.27344C50.9609 1.33594 51.4766 0.828125 52.4141 0.75C52.8516 0.75 53.2266 0.898438 53.5391 1.19531C53.8672 1.47656 54.0312 1.83594 54.0312 2.27344V13.4297C54.0156 13.8672 53.8516 14.2344 53.5391 14.5312C53.2266 14.8125 52.8516 14.9531 52.4141 14.9531H42.5703C41.1953 14.9062 40.1562 14.5859 39.4531 13.9922C38.75 13.3828 38.2422 12.7031 37.9297 11.9531C37.6172 11.1875 37.4609 10.4141 37.4609 9.63281C37.4609 8.82031 37.6094 8.03906 37.9062 7.28906C38.2188 6.52344 38.7266 5.84375 39.4297 5.25C40.1484 4.64062 41.0547 4.32812 42.1484 4.3125H48.0547C48.4922 4.3125 48.8594 4.46875 49.1562 4.78125C49.4688 5.07812 49.625 5.44531 49.625 5.88281C49.625 6.32031 49.4688 6.69531 49.1562 7.00781C48.8594 7.30469 48.4922 7.45312 48.0547 7.45312H42.0547C41.7578 7.45312 41.5 7.57812 41.2812 7.82812C41.0625 8.0625 40.8984 8.34375 40.7891 8.67188C40.6953 8.98438 40.6484 9.29688 40.6484 9.60938C40.6484 9.9375 40.6953 10.2656 40.7891 10.5938C40.8984 10.9062 41.0625 11.1875 41.2812 11.4375C41.5 11.6719 41.7578 11.7969 42.0547 11.8125H50.2578C50.6641 11.7969 50.8672 11.5938 50.8672 11.2031V2.27344ZM61.9297 14.9531C60.5547 14.9062 59.5156 14.5859 58.8125 13.9922C58.1094 13.3828 57.6016 12.7031 57.2891 11.9531C56.9766 11.1875 56.8203 10.4141 56.8203 9.63281C56.8203 8.82031 56.9688 8.03906 57.2656 7.28906C57.5781 6.52344 58.0859 5.84375 58.7891 5.25C59.5078 4.64062 60.4141 4.32812 61.5078 4.3125H70.4141C70.8516 4.3125 71.2188 4.46094 71.5156 4.75781C71.8281 5.03906 71.9844 5.38281 71.9844 5.78906C71.9844 6.21094 71.8281 6.57031 71.5156 6.86719C71.2188 7.14844 70.8516 7.28906 70.4141 7.28906H61.6484C61.3047 7.28906 61 7.40625 60.7344 7.64062C60.4844 7.875 60.2969 8.17969 60.1719 8.55469C60.0625 8.92969 60.0078 9.29688 60.0078 9.65625C60.0078 10.0469 60.0625 10.4297 60.1719 10.8047C60.2969 11.1797 60.4844 11.4844 60.7344 11.7188C61 11.9375 61.3047 12.0547 61.6484 12.0703H70.4141C70.8516 12.0703 71.2188 12.2109 71.5156 12.4922C71.8281 12.7734 71.9844 13.1094 71.9844 13.5C71.9844 13.9062 71.8281 14.25 71.5156 14.5312C71.2188 14.8125 70.8516 14.9531 70.4141 14.9531H61.9297ZM71.7031 9.58594C71.7031 9.88281 71.5703 10.1406 71.3047 10.3594C71.0703 10.5625 70.7734 10.6641 70.4141 10.6641H62.75C62.3906 10.6641 62.0859 10.5625 61.8359 10.3594C61.5859 10.1406 61.4609 9.88281 61.4609 9.58594C61.4609 9.30469 61.5859 9.05469 61.8359 8.83594C62.0859 8.63281 62.3906 8.53125 62.75 8.53125H70.4141C70.7734 8.53125 71.0781 8.64062 71.3281 8.85938C71.5781 9.0625 71.7031 9.30469 71.7031 9.58594ZM75.1719 7.26562C75.4688 6.51562 75.9688 5.84375 76.6719 5.25C77.3906 4.64062 78.2969 4.32812 79.3906 4.3125H88.2031C88.6406 4.3125 89.0078 4.46875 89.3047 4.78125C89.6172 5.07812 89.7734 5.44531 89.7734 5.88281C89.7734 6.32031 89.6172 6.69531 89.3047 7.00781C89.0078 7.30469 88.6406 7.45312 88.2031 7.45312H79.2969C79 7.45312 78.7422 7.57812 78.5234 7.82812C78.3047 8.0625 78.1328 8.34375 78.0078 8.67188C77.8984 9 77.8438 9.3125 77.8438 9.60938V13.7109C77.75 14.6484 77.2344 15.1562 76.2969 15.2344C75.8594 15.2344 75.4766 15.0938 75.1484 14.8125C74.8359 14.5156 74.6797 14.1484 74.6797 13.7109V9.63281H74.7031C74.7031 8.82031 74.8594 8.03125 75.1719 7.26562Z" fill="#04B4FC"/>
<path d="M13.0625 1.125C13.8594 1.14062 14.5703 1.39062 15.1953 1.875C15.8203 2.35938 16.3203 2.9375 16.6953 3.60938C17.0859 4.28125 17.375 4.99219 17.5625 5.74219C17.75 6.49219 17.8438 7.25781 17.8438 8.03906C17.8438 9.07031 17.6797 10.0859 17.3516 11.0859C17.0391 12.0703 16.5156 12.9453 15.7812 13.7109C15.0625 14.4766 14.1562 14.8906 13.0625 14.9531H4.88281C3.78906 14.9062 2.875 14.5 2.14062 13.7344C1.40625 12.9688 0.882812 12.0859 0.570312 11.0859C0.273438 10.0859 0.125 9.07031 0.125 8.03906C0.125 7.00781 0.28125 6 0.59375 5.01562C0.90625 4.01562 1.42188 3.13281 2.14062 2.36719C2.875 1.58594 3.78906 1.17188 4.88281 1.125H5.32812H12.6172H13.0625ZM12.2656 11.8125C12.8594 11.7812 13.3516 11.5625 13.7422 11.1562C14.1484 10.7344 14.4375 10.25 14.6094 9.70312C14.7812 9.15625 14.8672 8.60156 14.8672 8.03906C14.8672 7.47656 14.7734 6.92969 14.5859 6.39844C14.4141 5.85156 14.1328 5.36719 13.7422 4.94531C13.3516 4.52344 12.8594 4.29688 12.2656 4.26562H5.60938C5.01562 4.29688 4.52344 4.52344 4.13281 4.94531C3.74219 5.36719 3.45312 5.85156 3.26562 6.39844C3.09375 6.92969 3.00781 7.47656 3.00781 8.03906C3.00781 8.60156 3.09375 9.15625 3.26562 9.70312C3.4375 10.25 3.71875 10.7344 4.10938 11.1562C4.51562 11.5625 5.01562 11.7812 5.60938 11.8125H12.2656ZM20.8906 7.26562C21.1875 6.51562 21.6875 5.84375 22.3906 5.25C23.1094 4.64062 24.0156 4.32812 25.1094 4.3125H33.9219C34.3594 4.3125 34.7266 4.46875 35.0234 4.78125C35.3359 5.07812 35.4922 5.44531 35.4922 5.88281C35.4922 6.32031 35.3359 6.69531 35.0234 7.00781C34.7266 7.30469 34.3594 7.45312 33.9219 7.45312H25.0156C24.7188 7.45312 24.4609 7.57812 24.2422 7.82812C24.0234 8.0625 23.8516 8.34375 23.7266 8.67188C23.6172 9 23.5625 9.3125 23.5625 9.60938V13.7109C23.4688 14.6484 22.9531 15.1562 22.0156 15.2344C21.5781 15.2344 21.1953 15.0938 20.8672 14.8125C20.5547 14.5156 20.3984 14.1484 20.3984 13.7109V9.63281H20.4219C20.4219 8.82031 20.5781 8.03125 20.8906 7.26562ZM50.8672 2.27344C50.9609 1.33594 51.4766 0.828125 52.4141 0.75C52.8516 0.75 53.2266 0.898438 53.5391 1.19531C53.8672 1.47656 54.0312 1.83594 54.0312 2.27344V13.4297C54.0156 13.8672 53.8516 14.2344 53.5391 14.5312C53.2266 14.8125 52.8516 14.9531 52.4141 14.9531H42.5703C41.1953 14.9062 40.1562 14.5859 39.4531 13.9922C38.75 13.3828 38.2422 12.7031 37.9297 11.9531C37.6172 11.1875 37.4609 10.4141 37.4609 9.63281C37.4609 8.82031 37.6094 8.03906 37.9062 7.28906C38.2188 6.52344 38.7266 5.84375 39.4297 5.25C40.1484 4.64062 41.0547 4.32812 42.1484 4.3125H48.0547C48.4922 4.3125 48.8594 4.46875 49.1562 4.78125C49.4688 5.07812 49.625 5.44531 49.625 5.88281C49.625 6.32031 49.4688 6.69531 49.1562 7.00781C48.8594 7.30469 48.4922 7.45312 48.0547 7.45312H42.0547C41.7578 7.45312 41.5 7.57812 41.2812 7.82812C41.0625 8.0625 40.8984 8.34375 40.7891 8.67188C40.6953 8.98438 40.6484 9.29688 40.6484 9.60938C40.6484 9.9375 40.6953 10.2656 40.7891 10.5938C40.8984 10.9062 41.0625 11.1875 41.2812 11.4375C41.5 11.6719 41.7578 11.7969 42.0547 11.8125H50.2578C50.6641 11.7969 50.8672 11.5938 50.8672 11.2031V2.27344ZM61.9297 14.9531C60.5547 14.9062 59.5156 14.5859 58.8125 13.9922C58.1094 13.3828 57.6016 12.7031 57.2891 11.9531C56.9766 11.1875 56.8203 10.4141 56.8203 9.63281C56.8203 8.82031 56.9688 8.03906 57.2656 7.28906C57.5781 6.52344 58.0859 5.84375 58.7891 5.25C59.5078 4.64062 60.4141 4.32812 61.5078 4.3125H70.4141C70.8516 4.3125 71.2188 4.46094 71.5156 4.75781C71.8281 5.03906 71.9844 5.38281 71.9844 5.78906C71.9844 6.21094 71.8281 6.57031 71.5156 6.86719C71.2188 7.14844 70.8516 7.28906 70.4141 7.28906H61.6484C61.3047 7.28906 61 7.40625 60.7344 7.64062C60.4844 7.875 60.2969 8.17969 60.1719 8.55469C60.0625 8.92969 60.0078 9.29688 60.0078 9.65625C60.0078 10.0469 60.0625 10.4297 60.1719 10.8047C60.2969 11.1797 60.4844 11.4844 60.7344 11.7188C61 11.9375 61.3047 12.0547 61.6484 12.0703H70.4141C70.8516 12.0703 71.2188 12.2109 71.5156 12.4922C71.8281 12.7734 71.9844 13.1094 71.9844 13.5C71.9844 13.9062 71.8281 14.25 71.5156 14.5312C71.2188 14.8125 70.8516 14.9531 70.4141 14.9531H61.9297ZM71.7031 9.58594C71.7031 9.88281 71.5703 10.1406 71.3047 10.3594C71.0703 10.5625 70.7734 10.6641 70.4141 10.6641H62.75C62.3906 10.6641 62.0859 10.5625 61.8359 10.3594C61.5859 10.1406 61.4609 9.88281 61.4609 9.58594C61.4609 9.30469 61.5859 9.05469 61.8359 8.83594C62.0859 8.63281 62.3906 8.53125 62.75 8.53125H70.4141C70.7734 8.53125 71.0781 8.64062 71.3281 8.85938C71.5781 9.0625 71.7031 9.30469 71.7031 9.58594ZM75.1719 7.26562C75.4688 6.51562 75.9688 5.84375 76.6719 5.25C77.3906 4.64062 78.2969 4.32812 79.3906 4.3125H88.2031C88.6406 4.3125 89.0078 4.46875 89.3047 4.78125C89.6172 5.07812 89.7734 5.44531 89.7734 5.88281C89.7734 6.32031 89.6172 6.69531 89.3047 7.00781C89.0078 7.30469 88.6406 7.45312 88.2031 7.45312H79.2969C79 7.45312 78.7422 7.57812 78.5234 7.82812C78.3047 8.0625 78.1328 8.34375 78.0078 8.67188C77.8984 9 77.8438 9.3125 77.8438 9.60938V13.7109C77.75 14.6484 77.2344 15.1562 76.2969 15.2344C75.8594 15.2344 75.4766 15.0938 75.1484 14.8125C74.8359 14.5156 74.6797 14.1484 74.6797 13.7109V9.63281H74.7031C74.7031 8.82031 74.8594 8.03125 75.1719 7.26562Z" fill="black"/>
<path d="M93.7109 15.2344C93.2891 15.2188 92.9297 15.0703 92.6328 14.7891C92.3359 14.4922 92.1797 14.1328 92.1641 13.7109V7.875C92.1797 6.76562 92.3359 5.71875 92.6328 4.73438C92.9453 3.75 93.4531 2.92188 94.1562 2.25C94.875 1.5625 95.7812 1.1875 96.875 1.125H105.922C106.344 1.14062 106.695 1.29688 106.977 1.59375C107.273 1.875 107.43 2.22656 107.445 2.64844C107.445 3.08594 107.297 3.46094 107 3.77344C106.719 4.08594 106.359 4.25 105.922 4.26562H97.6719C97.0781 4.29688 96.5859 4.52344 96.1953 4.94531C95.8047 5.36719 95.5547 5.85156 95.4453 6.39844C95.3516 6.92969 95.3125 7.51562 95.3281 8.15625V13.7109C95.3125 14.1484 95.1484 14.5156 94.8359 14.8125C94.5234 15.0938 94.1484 15.2344 93.7109 15.2344ZM96.4297 9.07031C96.4297 8.63281 96.5859 8.26562 96.8984 7.96875C97.1953 7.65625 97.5625 7.5 98 7.5H105.922C106.359 7.5 106.727 7.65625 107.023 7.96875C107.336 8.26562 107.492 8.63281 107.492 9.07031C107.492 9.50781 107.344 9.88281 107.047 10.1953C106.734 10.4922 106.359 10.6406 105.922 10.6406H98C97.5625 10.6406 97.1875 10.4922 96.875 10.1953C96.5781 9.88281 96.4297 9.50781 96.4297 9.07031ZM111.242 0.75C111.664 0.765625 112.023 0.921875 112.32 1.21875C112.617 1.5 112.773 1.85156 112.789 2.27344V13.7578C112.695 14.6953 112.18 15.2031 111.242 15.2812C110.805 15.2812 110.422 15.1406 110.094 14.8594C109.781 14.5625 109.625 14.1953 109.625 13.7578V2.27344C109.641 1.83594 109.805 1.47656 110.117 1.19531C110.43 0.898438 110.805 0.75 111.242 0.75ZM120.617 14.9531C119.242 14.9062 118.203 14.5859 117.5 13.9922C116.797 13.3828 116.289 12.7031 115.977 11.9531C115.664 11.1875 115.508 10.4141 115.508 9.63281C115.508 8.82031 115.656 8.03906 115.953 7.28906C116.266 6.52344 116.773 5.84375 117.477 5.25C118.195 4.64062 119.102 4.32812 120.195 4.3125H127.789C128.883 4.32812 129.781 4.64062 130.484 5.25C131.203 5.84375 131.711 6.52344 132.008 7.28906C132.32 8.03906 132.477 8.82031 132.477 9.63281C132.477 10.4141 132.32 11.1875 132.008 11.9531C131.695 12.7031 131.188 13.3828 130.484 13.9922C129.781 14.5859 128.742 14.9062 127.367 14.9531H120.617ZM120.102 7.45312C119.805 7.45312 119.547 7.57812 119.328 7.82812C119.109 8.0625 118.945 8.34375 118.836 8.67188C118.742 8.98438 118.695 9.29688 118.695 9.60938C118.695 9.9375 118.742 10.2656 118.836 10.5938C118.945 10.9062 119.109 11.1875 119.328 11.4375C119.547 11.6719 119.805 11.7969 120.102 11.8125H127.883C128.18 11.7969 128.438 11.6719 128.656 11.4375C128.875 11.1875 129.031 10.9062 129.125 10.5938C129.234 10.2656 129.289 9.9375 129.289 9.60938C129.289 9.29688 129.234 8.98438 129.125 8.67188C129.031 8.34375 128.875 8.0625 128.656 7.82812C128.438 7.57812 128.18 7.45312 127.883 7.45312H120.102ZM140.141 15.2578C139.609 15.2578 139.078 15.1641 138.547 14.9766C138.031 14.7891 137.531 14.5156 137.047 14.1562C136.562 13.7812 136.141 13.2891 135.781 12.6797C135.422 12.0703 135.227 11.3438 135.195 10.5V5.50781C135.195 5.07031 135.352 4.71094 135.664 4.42969C135.992 4.13281 136.375 3.98438 136.812 3.98438C137.75 4.0625 138.258 4.57031 138.336 5.50781V10.3125C138.352 10.6875 138.43 11.0078 138.57 11.2734C138.711 11.5234 138.867 11.7266 139.039 11.8828C139.211 12.0234 139.383 12.1328 139.555 12.2109C139.742 12.2734 139.93 12.3047 140.117 12.3047C140.305 12.3047 140.492 12.2734 140.68 12.2109C140.867 12.1328 141.047 12.0234 141.219 11.8828C141.391 11.7266 141.547 11.5234 141.688 11.2734C141.828 11.0078 141.898 10.6875 141.898 10.3125V5.50781C141.898 5.07031 142.055 4.71094 142.367 4.42969C142.695 4.13281 143.078 3.98438 143.516 3.98438C144.453 4.0625 144.969 4.57031 145.062 5.50781V10.3125C145.078 10.6875 145.156 11 145.297 11.25C145.438 11.5156 145.594 11.7266 145.766 11.8828C145.938 12.0234 146.109 12.1328 146.281 12.2109C146.469 12.2734 146.656 12.3047 146.844 12.3047C147.031 12.3047 147.219 12.2734 147.406 12.2109C147.594 12.1328 147.773 12.0234 147.945 11.8828C148.117 11.7266 148.273 11.5234 148.414 11.2734C148.555 11.0078 148.625 10.6875 148.625 10.3125V5.50781C148.625 5.07031 148.781 4.71094 149.094 4.42969C149.422 4.13281 149.805 3.98438 150.242 3.98438C151.18 4.0625 151.695 4.57031 151.789 5.50781V10.5C151.789 11.3438 151.602 12.0703 151.227 12.6797C150.867 13.2891 150.445 13.7812 149.961 14.1562C149.492 14.5156 148.992 14.7891 148.461 14.9766C147.945 15.1641 147.414 15.2578 146.867 15.2578C146.336 15.2578 145.805 15.1641 145.273 14.9766C144.758 14.7891 144.258 14.5078 143.773 14.1328C143.68 14.0703 143.594 14 143.516 13.9219C143.422 14 143.336 14.0703 143.258 14.1328C142.773 14.5078 142.266 14.7891 141.734 14.9766C141.219 15.1641 140.688 15.2578 140.141 15.2578Z" fill="#04B4FC"/>
</svg>
