<svg width="14" height="14" viewBox="0 0 14 14" fill="none" xmlns="http://www.w3.org/2000/svg">
<g clip-path="url(#clip0_307_904)">
<rect width="14" height="14" fill="white" fill-opacity="0.01"/>
<g clip-path="url(#clip1_307_904)">
<path d="M-0.000244141 2.18677C-0.000244141 2.07074 0.0458495 1.95946 0.127897 1.87741C0.209944 1.79536 0.321224 1.74927 0.437256 1.74927H1.74976C1.84735 1.74929 1.94212 1.78195 2.01902 1.84204C2.09592 1.90213 2.15051 1.9862 2.17413 2.08089L2.52851 3.49927H12.6873C12.7537 3.49929 12.8193 3.51444 12.879 3.54359C12.9387 3.57273 12.991 3.6151 13.0319 3.66748C13.0728 3.71985 13.1013 3.78086 13.1151 3.84586C13.1289 3.91087 13.1277 3.97816 13.1116 4.04264L11.7991 9.29264C11.7755 9.38733 11.7209 9.47141 11.644 9.5315C11.5671 9.59159 11.4723 9.62424 11.3748 9.62427H3.49976C3.40217 9.62424 3.30739 9.59159 3.23049 9.5315C3.1536 9.47141 3.099 9.38733 3.07538 9.29264L1.40851 2.62427H0.437256C0.321224 2.62427 0.209944 2.57817 0.127897 2.49613C0.0458495 2.41408 -0.000244141 2.3028 -0.000244141 2.18677ZM2.74726 4.37427L3.84101 8.74927H11.0335L12.1273 4.37427H2.74726ZM4.37476 11.3743C4.14269 11.3743 3.92013 11.4665 3.75604 11.6305C3.59194 11.7946 3.49976 12.0172 3.49976 12.2493C3.49976 12.4813 3.59194 12.7039 3.75604 12.868C3.92013 13.0321 4.14269 13.1243 4.37476 13.1243C4.60682 13.1243 4.82938 13.0321 4.99347 12.868C5.15757 12.7039 5.24976 12.4813 5.24976 12.2493C5.24976 12.0172 5.15757 11.7946 4.99347 11.6305C4.82938 11.4665 4.60682 11.3743 4.37476 11.3743ZM2.62476 12.2493C2.62476 11.7851 2.80913 11.34 3.13732 11.0118C3.46551 10.6836 3.91063 10.4993 4.37476 10.4993C4.83888 10.4993 5.284 10.6836 5.61219 11.0118C5.94038 11.34 6.12476 11.7851 6.12476 12.2493C6.12476 12.7134 5.94038 13.1585 5.61219 13.4867C5.284 13.8149 4.83888 13.9993 4.37476 13.9993C3.91063 13.9993 3.46551 13.8149 3.13732 13.4867C2.80913 13.1585 2.62476 12.7134 2.62476 12.2493ZM10.4998 11.3743C10.2677 11.3743 10.0451 11.4665 9.88104 11.6305C9.71694 11.7946 9.62476 12.0172 9.62476 12.2493C9.62476 12.4813 9.71694 12.7039 9.88104 12.868C10.0451 13.0321 10.2677 13.1243 10.4998 13.1243C10.7318 13.1243 10.9544 13.0321 11.1185 12.868C11.2826 12.7039 11.3748 12.4813 11.3748 12.2493C11.3748 12.0172 11.2826 11.7946 11.1185 11.6305C10.9544 11.4665 10.7318 11.3743 10.4998 11.3743ZM8.74976 12.2493C8.74976 11.7851 8.93413 11.34 9.26232 11.0118C9.59051 10.6836 10.0356 10.4993 10.4998 10.4993C10.9639 10.4993 11.409 10.6836 11.7372 11.0118C12.0654 11.34 12.2498 11.7851 12.2498 12.2493C12.2498 12.7134 12.0654 13.1585 11.7372 13.4867C11.409 13.8149 10.9639 13.9993 10.4998 13.9993C10.0356 13.9993 9.59051 13.8149 9.26232 13.4867C8.93413 13.1585 8.74976 12.7134 8.74976 12.2493Z" fill="white"/>
</g>
</g>
<defs>
<clipPath id="clip0_307_904">
<rect width="14" height="14" fill="white"/>
</clipPath>
<clipPath id="clip1_307_904">
<rect width="14" height="14" fill="white"/>
</clipPath>
</defs>
</svg>
